<svg width="48" height="48" viewBox="0 0 48 48" fill="none" xmlns="http://www.w3.org/2000/svg">
<rect x="0.5" y="0.5" width="47" height="47" rx="15.5" fill="#FAFAFA"/>
<rect x="0.5" y="0.5" width="47" height="47" rx="15.5" stroke="#F4F4F5"/>
<path d="M24.83 14.1801C24.5695 14.0613 24.2864 13.9998 24 13.9998C23.7136 13.9998 23.4306 14.0613 23.17 14.1801L14.6 18.0801C14.4226 18.1584 14.2717 18.2865 14.1658 18.449C14.0599 18.6114 14.0035 18.8012 14.0035 18.9951C14.0035 19.189 14.0599 19.3788 14.1658 19.5413C14.2717 19.7037 14.4226 19.8319 14.6 19.9101L23.18 23.8201C23.4406 23.939 23.7236 24.0005 24.01 24.0005C24.2964 24.0005 24.5795 23.939 24.84 23.8201L33.42 19.9201C33.5975 19.8419 33.7483 19.7137 33.8543 19.5513C33.9602 19.3888 34.0166 19.199 34.0166 19.0051C34.0166 18.8112 33.9602 18.6214 33.8543 18.459C33.7483 18.2965 33.5975 18.1684 33.42 18.0901L24.83 14.1801Z" stroke="#18181B" stroke-width="2" stroke-linecap="round" stroke-linejoin="round"/>
<path d="M14 24C13.9995 24.1913 14.0539 24.3787 14.1567 24.5399C14.2595 24.7012 14.4064 24.8297 14.58 24.91L23.18 28.82C23.4392 28.9374 23.7205 28.9981 24.005 28.9981C24.2895 28.9981 24.5708 28.9374 24.83 28.82L33.41 24.92C33.587 24.8404 33.737 24.7111 33.8418 24.5477C33.9466 24.3844 34.0015 24.1941 34 24" stroke="#18181B" stroke-width="2" stroke-linecap="round" stroke-linejoin="round"/>
<path d="M14 29C13.9995 29.1913 14.0539 29.3787 14.1567 29.5399C14.2595 29.7012 14.4064 29.8297 14.58 29.91L23.18 33.82C23.4392 33.9374 23.7205 33.9981 24.005 33.9981C24.2895 33.9981 24.5708 33.9374 24.83 33.82L33.41 29.92C33.587 29.8404 33.737 29.7111 33.8418 29.5477C33.9466 29.3844 34.0015 29.1941 34 29" stroke="#18181B" stroke-width="2" stroke-linecap="round" stroke-linejoin="round"/>
</svg>
