<svg width="48" height="48" viewBox="0 0 48 48" fill="none" xmlns="http://www.w3.org/2000/svg">
<rect x="0.5" y="0.5" width="47" height="47" rx="15.5" fill="#FAFAFA"/>
<rect x="0.5" y="0.5" width="47" height="47" rx="15.5" stroke="#F4F4F5"/>
<path d="M22 25C22.4295 25.5741 22.9774 26.0491 23.6066 26.3929C24.2357 26.7367 24.9315 26.9411 25.6467 26.9923C26.3618 27.0435 27.0796 26.9403 27.7513 26.6897C28.4231 26.4392 29.0331 26.047 29.54 25.54L32.54 22.54C33.4508 21.597 33.9548 20.3339 33.9434 19.023C33.932 17.712 33.4061 16.4579 32.4791 15.5309C31.5521 14.6038 30.298 14.078 28.987 14.0666C27.676 14.0552 26.413 14.5592 25.47 15.47L23.75 17.18" stroke="#18181B" stroke-width="2" stroke-linecap="round" stroke-linejoin="round"/>
<path d="M26 23C25.5705 22.4259 25.0226 21.9508 24.3934 21.607C23.7642 21.2633 23.0684 21.0589 22.3533 21.0076C21.6382 20.9564 20.9204 21.0596 20.2486 21.3102C19.5769 21.5608 18.9668 21.9529 18.46 22.46L15.46 25.46C14.5492 26.403 14.0452 27.666 14.0566 28.977C14.068 30.288 14.5938 31.542 15.5209 32.4691C16.4479 33.3961 17.702 33.922 19.0129 33.9334C20.3239 33.9447 21.5869 33.4408 22.53 32.53L24.24 30.82" stroke="#18181B" stroke-width="2" stroke-linecap="round" stroke-linejoin="round"/>
</svg>
