<svg width="48" height="48" viewBox="0 0 48 48" fill="none" xmlns="http://www.w3.org/2000/svg">
<rect x="0.5" y="0.5" width="47" height="47" rx="15.5" fill="#FAFAFA"/>
<rect x="0.5" y="0.5" width="47" height="47" rx="15.5" stroke="#F4F4F5"/>
<path d="M24.83 14.18C24.5695 14.0611 24.2864 13.9996 24 13.9996C23.7136 13.9996 23.4306 14.0611 23.17 14.18L14.6 18.08C14.4226 18.1582 14.2717 18.2864 14.1658 18.4488C14.0599 18.6113 14.0035 18.8011 14.0035 18.995C14.0035 19.1889 14.0599 19.3787 14.1658 19.5411C14.2717 19.7036 14.4226 19.8317 14.6 19.91L23.18 23.82C23.4406 23.9388 23.7236 24.0003 24.01 24.0003C24.2964 24.0003 24.5795 23.9388 24.84 23.82L33.42 19.92C33.5975 19.8417 33.7483 19.7136 33.8543 19.5511C33.9602 19.3887 34.0166 19.1989 34.0166 19.005C34.0166 18.8111 33.9602 18.6213 33.8543 18.4588C33.7483 18.2964 33.5975 18.1682 33.42 18.09L24.83 14.18Z" stroke="#18181B" stroke-width="2" stroke-linecap="round" stroke-linejoin="round"/>
<path d="M14 24C13.9995 24.1913 14.0539 24.3787 14.1567 24.5399C14.2595 24.7012 14.4064 24.8297 14.58 24.91L23.18 28.82C23.4392 28.9374 23.7205 28.9981 24.005 28.9981C24.2895 28.9981 24.5708 28.9374 24.83 28.82L33.41 24.92C33.587 24.8404 33.737 24.7111 33.8418 24.5477C33.9466 24.3844 34.0015 24.1941 34 24" stroke="#18181B" stroke-width="2" stroke-linecap="round" stroke-linejoin="round"/>
<path d="M14 29C13.9995 29.1913 14.0539 29.3787 14.1567 29.5399C14.2595 29.7012 14.4064 29.8297 14.58 29.91L23.18 33.82C23.4392 33.9374 23.7205 33.9981 24.005 33.9981C24.2895 33.9981 24.5708 33.9374 24.83 33.82L33.41 29.92C33.587 29.8404 33.737 29.7111 33.8418 29.5477C33.9466 29.3844 34.0015 29.1941 34 29" stroke="#18181B" stroke-width="2" stroke-linecap="round" stroke-linejoin="round"/>
</svg>
