<svg width="48" height="48" viewBox="0 0 48 48" fill="none" xmlns="http://www.w3.org/2000/svg">
<rect x="0.5" y="0.5" width="47" height="47" rx="15.5" fill="#FAFAFA"/>
<rect x="0.5" y="0.5" width="47" height="47" rx="15.5" stroke="#F4F4F5"/>
<path d="M27.707 33.293C27.5194 33.4804 27.2651 33.5858 27 33.5858C26.7348 33.5858 26.4805 33.4804 26.293 33.293L24.707 31.707C24.5195 31.5194 24.4142 31.2651 24.4142 31C24.4142 30.7348 24.5195 30.4805 24.707 30.293L30.293 24.707C30.4805 24.5195 30.7348 24.4142 31 24.4142C31.2651 24.4142 31.5194 24.5195 31.707 24.707L33.293 26.293C33.4804 26.4805 33.5858 26.7348 33.5858 27C33.5858 27.2651 33.4804 27.5194 33.293 27.707L27.707 33.293Z" stroke="#18181B" stroke-width="2" stroke-linecap="round" stroke-linejoin="round"/>
<path d="M30 25L28.625 18.126C28.5876 17.939 28.4975 17.7666 28.3653 17.6291C28.2331 17.4916 28.0644 17.3947 27.879 17.35L15.235 14.028C15.0684 13.9877 14.8943 13.9909 14.7293 14.0373C14.5644 14.0837 14.4141 14.1717 14.2929 14.2929C14.1717 14.4141 14.0837 14.5644 14.0373 14.7293C13.9909 14.8943 13.9877 15.0684 14.028 15.235L17.35 27.879C17.3947 28.0644 17.4916 28.2331 17.6291 28.3653C17.7666 28.4975 17.939 28.5876 18.126 28.625L25 30" stroke="#18181B" stroke-width="2" stroke-linecap="round" stroke-linejoin="round"/>
<path d="M14.3 14.3L21.586 21.586" stroke="#18181B" stroke-width="2" stroke-linecap="round" stroke-linejoin="round"/>
<path d="M23 25C24.1046 25 25 24.1046 25 23C25 21.8954 24.1046 21 23 21C21.8954 21 21 21.8954 21 23C21 24.1046 21.8954 25 23 25Z" stroke="#18181B" stroke-width="2" stroke-linecap="round" stroke-linejoin="round"/>
</svg>
