<svg width="118" height="35" viewBox="0 0 118 35" fill="none" xmlns="http://www.w3.org/2000/svg">
<path d="M7.30819 17.8071C8.97147 21.9428 13.6435 23.9355 17.7223 22.2498C19.0677 21.6937 20.2352 20.7832 21.0997 19.613C22.0787 18.2882 23.9326 18.0176 25.24 19.0096C26.5472 20.0016 26.8143 21.8806 25.8353 23.2054C24.3288 25.2475 22.2948 26.8366 19.9555 27.8028C12.8553 30.736 4.72533 27.266 1.83099 20.0703" fill="#F15A24"/>
<path d="M7.30819 17.8071C8.97147 21.9428 13.6435 23.9355 17.7223 22.2498C19.0677 21.6937 20.2352 20.7832 21.0997 19.613C22.0787 18.2882 23.9326 18.0176 25.24 19.0096C26.5472 20.0016 26.8143 21.8806 25.8353 23.2054C24.3288 25.2475 22.2948 26.8366 19.9555 27.8028C12.8553 30.736 4.72533 27.266 1.83099 20.0703" stroke="white" stroke-width="0.64" stroke-miterlimit="10"/>
<path d="M27.756 14.7539C30.6435 21.9174 27.1743 30.0993 20.0227 32.9924C12.8733 35.8856 4.70753 32.4096 1.82008 25.2462C1.20423 23.7194 1.94156 21.9836 3.46519 21.3665C4.98882 20.7494 6.72129 21.4883 7.33714 23.0149C8.99503 27.1315 13.6874 29.1279 17.7959 27.4667C21.9044 25.8055 23.899 21.1039 22.2389 16.9874" fill="#F15A24"/>
<path d="M27.756 14.7539C30.6435 21.9174 27.1743 30.0993 20.0227 32.9924C12.8733 35.8856 4.70753 32.4096 1.82008 25.2462C1.20423 23.7194 1.94156 21.9836 3.46519 21.3665C4.98882 20.7494 6.72129 21.4883 7.33714 23.0149C8.99503 27.1315 13.6874 29.1279 17.7959 27.4667C21.9044 25.8055 23.899 21.1039 22.2389 16.9874" stroke="white" stroke-width="0.64" stroke-miterlimit="10"/>
<path d="M22.1122 17.1024C20.4635 12.9713 15.7968 10.9679 11.711 12.6349C10.3631 13.1855 9.19326 14.092 8.32439 15.2554C7.34104 16.5753 5.48671 16.8389 4.18124 15.8446C2.87578 14.8505 2.61512 12.9755 3.59844 11.6557C5.1116 9.62433 7.15032 8.04518 9.49417 7.08739C16.6042 4.184 24.7253 7.67235 27.5968 14.8611" fill="#F15A24"/>
<path d="M22.1122 17.1024C20.4635 12.9713 15.7968 10.9679 11.711 12.6349C10.3631 13.1855 9.19326 14.092 8.32439 15.2554C7.34104 16.5753 5.48671 16.8389 4.18124 15.8446C2.87578 14.8505 2.61512 12.9755 3.59844 11.6557C5.1116 9.62433 7.15032 8.04518 9.49417 7.08739C16.6042 4.184 24.7253 7.67235 27.5968 14.8611" stroke="white" stroke-width="0.64" stroke-miterlimit="10"/>
<path d="M1.92327 20.1554C-0.968191 13.0153 2.45034 4.83975 9.54349 1.93132C16.5816 -0.955803 24.6337 2.41073 27.5802 9.43784C28.2132 10.9443 27.6225 12.7447 26.1472 13.4265C24.6083 14.1361 22.8091 13.4074 22.1762 11.8477C20.5145 7.74393 15.8472 5.76661 11.7725 7.43923C7.6956 9.1118 5.73127 13.81 7.39291 17.9117" fill="#F15A24"/>
<path d="M1.92327 20.1554C-0.968191 13.0153 2.45034 4.83975 9.54349 1.93132C16.5816 -0.955803 24.6337 2.41073 27.5802 9.43784C28.2132 10.9443 27.6225 12.7447 26.1472 13.4265C24.6083 14.1361 22.8091 13.4074 22.1762 11.8477C20.5145 7.74392 15.8472 5.76661 11.7725 7.43923C7.6956 9.1118 5.73127 13.81 7.39291 17.9117" stroke="white" stroke-width="0.64" stroke-miterlimit="10"/>
<path d="M38.9636 14.9082C38.1743 14.7556 37.5254 14.5465 37.0148 14.2788V11.376C37.6707 11.7166 38.3523 11.9726 39.062 12.1417C39.7718 12.3131 40.4487 12.3977 41.0927 12.3977C41.6878 12.3977 42.1375 12.3061 42.4397 12.1228C42.7418 11.9397 42.8941 11.679 42.8941 11.3385C42.8941 11.0824 42.812 10.8617 42.6481 10.6715C42.4841 10.4836 42.2452 10.3097 41.929 10.1524C41.6128 9.99509 41.1209 9.77433 40.4556 9.49487C39.2775 8.99697 38.4225 8.44271 37.8885 7.8344C37.3545 7.22612 37.0874 6.47694 37.0874 5.58918C37.0874 4.85879 37.2913 4.20824 37.6965 3.63519C38.1016 3.06449 38.6709 2.61826 39.3993 2.30356C40.1278 1.9865 40.964 1.82914 41.9126 1.82914C42.6903 1.82914 43.3813 1.89021 43.9879 2.01234C44.5946 2.13445 45.1778 2.32939 45.7354 2.59713V5.42713C44.6671 4.86818 43.592 4.58635 42.5122 4.58635C41.929 4.58635 41.4652 4.68029 41.1185 4.86818C40.7719 5.05606 40.6009 5.32849 40.6009 5.68077C40.6009 6.03306 40.7766 6.31959 41.1279 6.53799C41.4793 6.75641 42.1305 7.05469 43.0768 7.4328C43.9387 7.78508 44.6086 8.13264 45.0888 8.47323C45.569 8.81371 45.918 9.21064 46.1358 9.65919C46.3537 10.1101 46.4637 10.6808 46.4637 11.376C46.4637 12.5573 46.0351 13.478 45.1801 14.1426C44.3252 14.8072 43.0463 15.1384 41.3482 15.1384C40.5471 15.1384 39.753 15.0632 38.9636 14.9107V14.9082Z" fill="white"/>
<path d="M48.4352 14.2344C47.8824 13.6332 47.606 12.8088 47.606 11.7613V8.33009H46.367V6.10368H47.606V3.47564H50.8103V6.10368H52.813V8.33009H50.8103V11.3246C50.8103 11.7989 50.8993 12.1394 51.075 12.3461C51.2507 12.5528 51.5646 12.6562 52.0119 12.6562C52.4124 12.6562 52.813 12.5457 53.2135 12.3273V14.7183C52.8972 14.8637 52.56 14.9718 52.204 15.0376C51.8456 15.1033 51.4052 15.1386 50.8853 15.1386C49.8055 15.1386 48.9879 14.8379 48.4376 14.2344H48.4352Z" fill="white"/>
<path d="M54.5007 14.3425C53.8263 13.8141 53.4913 13.0741 53.4913 12.1254C53.4913 11.1766 53.8169 10.3828 54.4656 9.85202C55.1145 9.3236 56.0467 9.05814 57.2601 9.05814C57.7332 9.05814 58.2064 9.10983 58.6794 9.21322C59.1527 9.31652 59.5602 9.45274 59.8998 9.62416V9.44099C59.8998 8.50388 59.1363 8.0342 57.6067 8.0342C56.5386 8.0342 55.5618 8.24085 54.6765 8.65421V6.44658C55.0653 6.2634 55.5735 6.11544 56.206 6.00037C56.8361 5.88528 57.4919 5.82657 58.1712 5.82657C59.7967 5.82657 61.0266 6.15302 61.858 6.80357C62.6895 7.45411 63.1041 8.36533 63.1041 9.53262V14.8638H60.1012V14.1146C59.7734 14.4316 59.3611 14.6805 58.8621 14.8638C58.3657 15.047 57.7941 15.1386 57.1499 15.1386C56.0584 15.1386 55.1754 14.8731 54.5007 14.3447V14.3425ZM59.1527 12.9356C59.4805 12.783 59.7289 12.5857 59.8998 12.3414V11.5758C59.3775 11.2235 58.7825 11.0474 58.115 11.0474C57.691 11.0474 57.3631 11.1391 57.1312 11.3222C56.8993 11.5054 56.7846 11.773 56.7846 12.1254C56.7846 12.4542 56.897 12.7101 57.1218 12.891C57.3468 13.0741 57.67 13.1658 58.0963 13.1658C58.4734 13.1658 58.8247 13.0907 59.1527 12.9381V12.9356Z" fill="white"/>
<path d="M64.6561 6.10114H67.7504V7.06874C68.1274 6.65539 68.5818 6.34539 69.1159 6.13872C69.6499 5.93204 70.2075 5.8287 70.7907 5.8287C72.0157 5.8287 72.9244 6.14811 73.5125 6.78692C74.1004 7.42573 74.3955 8.29231 74.3955 9.38916V14.8659H71.1911V9.80952C71.1911 8.82314 70.7414 8.33224 69.8443 8.33224C69.4322 8.33224 69.055 8.42621 68.7154 8.61414C68.3758 8.80197 68.0899 9.09085 67.8605 9.48069V14.8659H64.6561V6.10349V6.10114Z" fill="white"/>
<path d="M36.698 19.8279H40.1388L43.3782 28.3157L46.6199 19.8279H50.042L44.964 32.5876H41.7971L36.7003 19.8279H36.698Z" fill="white"/>
<path d="M50.507 31.6562C49.5304 30.853 49.0408 29.7163 49.0408 28.2415C49.0408 26.7666 49.4742 25.6488 50.3431 24.8102C51.2098 23.9694 52.463 23.5514 54.1025 23.5514C55.1472 23.5514 56.042 23.7487 56.7868 24.1456C57.534 24.5403 58.0986 25.0828 58.4803 25.7707C58.8621 26.4589 59.0542 27.2339 59.0542 28.0982V29.2842H52.0811C52.203 29.7703 52.5051 30.125 52.9922 30.3435C53.4771 30.5618 54.14 30.6723 54.9763 30.6723C55.5454 30.6723 56.1333 30.6229 56.7329 30.5267C57.3327 30.4303 57.8525 30.2964 58.2883 30.125V32.2434C57.8385 32.4266 57.2788 32.5746 56.6041 32.6897C55.9296 32.8047 55.2409 32.8635 54.5383 32.8635C52.8259 32.8635 51.4815 32.4618 50.5047 31.6587L50.507 31.6562ZM56.0326 27.2763C55.9834 26.8018 55.7891 26.4307 55.4494 26.163C55.1098 25.8952 54.6413 25.7614 54.0487 25.7614C53.456 25.7614 53.004 25.8977 52.6645 26.1723C52.3248 26.4472 52.1303 26.8136 52.0811 27.2763H56.0326Z" fill="white"/>
<path d="M60.3263 23.8254H63.4205V24.793C63.7976 24.3797 64.252 24.0696 64.7861 23.863C65.3202 23.6563 65.8776 23.553 66.4609 23.553C67.6859 23.553 68.5947 23.8724 69.1826 24.5112C69.7706 25.15 70.0657 26.0166 70.0657 27.1134V32.5901H66.8614V27.5337C66.8614 26.5474 66.4117 26.0565 65.5146 26.0565C65.1023 26.0565 64.7252 26.1505 64.3856 26.3384C64.0459 26.5262 63.7602 26.8151 63.5306 27.205V32.5901H60.3263V23.8277V23.8254Z" fill="white"/>
<path d="M72.9599 31.9554C72.4071 31.3542 72.1308 30.53 72.1308 29.4825V26.0512H70.8917V23.8247H72.1308V21.1968H75.335V23.8247H77.3377V26.0512H75.335V29.0455C75.335 29.52 75.424 29.8605 75.5996 30.0672C75.7753 30.2739 76.0891 30.3772 76.5366 30.3772C76.9372 30.3772 77.3376 30.2669 77.7382 30.0484V32.4392C77.422 32.5849 77.0847 32.693 76.7287 32.7586C76.3704 32.8244 75.9299 32.8596 75.41 32.8596C74.3302 32.8596 73.5127 32.559 72.9622 31.9554H72.9599Z" fill="white"/>
<path d="M79.3615 31.858C78.7595 31.1886 78.4597 30.3056 78.4597 29.2111V23.8259H81.664V28.8447C81.664 29.8547 82.1184 30.3595 83.0296 30.3595C83.4418 30.3595 83.8189 30.2633 84.1586 30.0683C84.4981 29.8734 84.7769 29.5869 84.9971 29.2111V23.8259H88.2014V32.5883H85.1072V31.6396C84.7301 32.0411 84.2757 32.3464 83.7416 32.5532C83.2076 32.7598 82.6501 32.8631 82.0669 32.8631C80.8653 32.8631 79.9635 32.5297 79.3638 31.858H79.3615Z" fill="white"/>
<path d="M89.8391 23.8254H92.9333V24.9198C93.2726 24.5299 93.7523 24.2293 94.3709 24.0156C94.9893 23.8019 95.6758 23.6961 96.4277 23.6961V26.1598C95.6266 26.1598 94.9194 26.2748 94.3081 26.5074C93.6941 26.7399 93.2726 27.0851 93.0435 27.5477V32.5854H89.8391V23.823V23.8254Z" fill="white"/>
<path d="M98.4433 31.6562C97.4669 30.853 96.9773 29.7163 96.9773 28.2415C96.9773 26.7666 97.4104 25.6488 98.2796 24.8102C99.146 23.9694 100.399 23.5514 102.039 23.5514C103.083 23.5514 103.978 23.7487 104.723 24.1456C105.47 24.5403 106.035 25.0828 106.416 25.7707C106.799 26.4589 106.99 27.2339 106.99 28.0982V29.2842H100.018C100.139 29.7703 100.441 30.125 100.929 30.3435C101.416 30.5618 102.076 30.6723 102.912 30.6723C103.482 30.6723 104.07 30.6229 104.669 30.5267C105.269 30.4303 105.789 30.2964 106.227 30.125V32.2434C105.777 32.4266 105.217 32.5746 104.543 32.6897C103.868 32.8047 103.179 32.8635 102.476 32.8635C100.764 32.8635 99.4198 32.4618 98.4433 31.6587V31.6562ZM103.968 27.2763C103.919 26.8018 103.725 26.4307 103.386 26.163C103.046 25.8952 102.578 25.7614 101.982 25.7614C101.387 25.7614 100.938 25.8977 100.599 26.1723C100.258 26.4472 100.064 26.8136 100.015 27.2763H103.967H103.968Z" fill="white"/>
<path d="M109.83 32.651C109.064 32.5101 108.457 32.3128 108.009 32.0568V29.7012C108.506 29.9924 109.106 30.2343 109.803 30.4222C110.502 30.6101 111.141 30.7041 111.724 30.7041C112.148 30.7041 112.457 30.6736 112.652 30.6124C112.846 30.5514 112.942 30.4292 112.942 30.2484C112.942 30.1027 112.879 29.9831 112.75 29.8914C112.624 29.7998 112.393 29.7035 112.06 29.6003C111.724 29.4969 111.341 29.3841 110.903 29.2621C110.162 29.0437 109.579 28.8182 109.155 28.5857C108.731 28.3555 108.415 28.0619 108.209 27.7096C108.002 27.3573 107.899 26.9135 107.899 26.378C107.899 25.4293 108.271 24.72 109.019 24.2526C109.766 23.7852 110.788 23.5503 112.087 23.5503C112.717 23.5503 113.383 23.6184 114.081 23.75C114.778 23.8838 115.304 24.06 115.654 24.2784V26.5964C115.291 26.3522 114.809 26.1525 114.208 25.9953C113.606 25.8378 113.046 25.758 112.523 25.758C112.111 25.758 111.79 25.7978 111.558 25.8778C111.326 25.9576 111.212 26.0938 111.212 26.2888C111.212 26.4719 111.326 26.6105 111.558 26.7092C111.788 26.8078 112.203 26.9276 112.797 27.0733C113.186 27.1718 113.35 27.2141 113.289 27.2C114.065 27.4068 114.667 27.6392 115.09 27.8928C115.514 28.1488 115.817 28.4494 115.992 28.797C116.168 29.1446 116.257 29.5862 116.257 30.1193C116.257 30.96 115.897 31.6247 115.175 32.1179C114.453 32.611 113.407 32.8577 112.033 32.8577C111.329 32.8577 110.596 32.7872 109.832 32.6487L109.83 32.651Z" fill="white"/>
</svg>
